<mxfile host="app.diagrams.net" modified="2023-01-31T18:35:06.849Z" agent="5.0 (Windows NT 10.0; Win64; x64) AppleWebKit/537.36 (KHTML, like Gecko) Chrome/108.0.0.0 Safari/537.36 Edg/108.0.1462.76" etag="jna0GFE7mvTk9pcZr2XQ" version="20.8.13" type="github">
  <diagram name="Page-1" id="K9eRbIsHGL254fdaUSsS">
    <mxGraphModel dx="2304" dy="876" grid="1" gridSize="10" guides="1" tooltips="1" connect="1" arrows="1" fold="1" page="1" pageScale="1" pageWidth="1100" pageHeight="850" math="0" shadow="0">
      <root>
        <mxCell id="0" />
        <mxCell id="1" parent="0" />
        <mxCell id="cYbO4SU-JKFP0LUjQvzQ-2" value="" style="aspect=fixed;perimeter=ellipsePerimeter;html=1;align=center;shadow=0;dashed=0;fontColor=#4277BB;labelBackgroundColor=#ffffff;fontSize=12;spacingTop=3;image;image=img/lib/ibm/data/data_services.svg;" vertex="1" parent="1">
          <mxGeometry x="30" y="680" width="60" height="60" as="geometry" />
        </mxCell>
        <mxCell id="cYbO4SU-JKFP0LUjQvzQ-7" value="w" style="shape=mxgraph.ibm.box;prType=cloud;fontStyle=0;verticalAlign=top;align=left;spacingLeft=32;spacingTop=4;fillColor=none;rounded=0;whiteSpace=wrap;html=1;strokeColor=#4376BB;strokeWidth=3;dashed=0;container=1;spacing=-4;collapsible=0;expand=0;recursiveResize=0;" vertex="1" parent="1">
          <mxGeometry x="170" y="60" width="900" height="770" as="geometry" />
        </mxCell>
        <mxCell id="cYbO4SU-JKFP0LUjQvzQ-8" value="Firewall" style="aspect=fixed;perimeter=ellipsePerimeter;html=1;align=center;shadow=0;dashed=0;fontColor=#4277BB;labelBackgroundColor=#ffffff;fontSize=12;spacingTop=3;image;image=img/lib/ibm/security/firewall.svg;" vertex="1" parent="cYbO4SU-JKFP0LUjQvzQ-7">
          <mxGeometry x="-30" y="100" width="60" height="60" as="geometry" />
        </mxCell>
        <mxCell id="cYbO4SU-JKFP0LUjQvzQ-9" value="Load Balancer" style="aspect=fixed;perimeter=ellipsePerimeter;html=1;align=center;shadow=0;dashed=0;fontColor=#4277BB;labelBackgroundColor=#ffffff;fontSize=12;spacingTop=3;image;image=img/lib/ibm/vpc/LoadBalancer.svg;" vertex="1" parent="cYbO4SU-JKFP0LUjQvzQ-7">
          <mxGeometry x="88" y="100" width="60" height="60" as="geometry" />
        </mxCell>
        <mxCell id="cYbO4SU-JKFP0LUjQvzQ-11" value="" style="html=1;labelBackgroundColor=#ffffff;endArrow=classic;endFill=1;endSize=6;jettySize=auto;orthogonalLoop=1;strokeWidth=1;fontSize=14;rounded=0;exitX=1;exitY=0.5;exitDx=0;exitDy=0;" edge="1" parent="cYbO4SU-JKFP0LUjQvzQ-7" source="cYbO4SU-JKFP0LUjQvzQ-8" target="cYbO4SU-JKFP0LUjQvzQ-9">
          <mxGeometry width="60" height="60" relative="1" as="geometry">
            <mxPoint x="350" y="380" as="sourcePoint" />
            <mxPoint x="410" y="320" as="targetPoint" />
          </mxGeometry>
        </mxCell>
        <mxCell id="cYbO4SU-JKFP0LUjQvzQ-12" value="API Pods" style="sketch=0;html=1;dashed=0;whitespace=wrap;fillColor=#2875E2;strokeColor=#ffffff;points=[[0.005,0.63,0],[0.1,0.2,0],[0.9,0.2,0],[0.5,0,0],[0.995,0.63,0],[0.72,0.99,0],[0.5,1,0],[0.28,0.99,0]];verticalLabelPosition=bottom;align=center;verticalAlign=top;shape=mxgraph.kubernetes.icon;prIcon=pod" vertex="1" parent="cYbO4SU-JKFP0LUjQvzQ-7">
          <mxGeometry x="230" y="100" width="50" height="48" as="geometry" />
        </mxCell>
        <mxCell id="cYbO4SU-JKFP0LUjQvzQ-13" value="" style="html=1;labelBackgroundColor=#ffffff;endArrow=classic;endFill=1;endSize=6;jettySize=auto;orthogonalLoop=1;strokeWidth=1;fontSize=14;rounded=0;exitX=1;exitY=0.5;exitDx=0;exitDy=0;entryX=0.005;entryY=0.63;entryDx=0;entryDy=0;entryPerimeter=0;" edge="1" parent="cYbO4SU-JKFP0LUjQvzQ-7" source="cYbO4SU-JKFP0LUjQvzQ-9" target="cYbO4SU-JKFP0LUjQvzQ-12">
          <mxGeometry width="60" height="60" relative="1" as="geometry">
            <mxPoint x="350" y="380" as="sourcePoint" />
            <mxPoint x="410" y="320" as="targetPoint" />
          </mxGeometry>
        </mxCell>
        <mxCell id="cYbO4SU-JKFP0LUjQvzQ-14" value="Kafka Stream" style="sketch=0;points=[[0,0,0],[0.25,0,0],[0.5,0,0],[0.75,0,0],[1,0,0],[0,1,0],[0.25,1,0],[0.5,1,0],[0.75,1,0],[1,1,0],[0,0.25,0],[0,0.5,0],[0,0.75,0],[1,0.25,0],[1,0.5,0],[1,0.75,0]];outlineConnect=0;fontColor=#232F3E;gradientColor=#945DF2;gradientDirection=north;fillColor=#5A30B5;strokeColor=#ffffff;dashed=0;verticalLabelPosition=bottom;verticalAlign=top;align=center;html=1;fontSize=12;fontStyle=0;aspect=fixed;shape=mxgraph.aws4.resourceIcon;resIcon=mxgraph.aws4.managed_streaming_for_kafka;" vertex="1" parent="cYbO4SU-JKFP0LUjQvzQ-7">
          <mxGeometry x="370" y="105" width="50" height="50" as="geometry" />
        </mxCell>
        <mxCell id="cYbO4SU-JKFP0LUjQvzQ-15" value="" style="html=1;labelBackgroundColor=#ffffff;endArrow=classic;endFill=1;endSize=6;jettySize=auto;orthogonalLoop=1;strokeWidth=1;fontSize=14;rounded=0;exitX=0.995;exitY=0.63;exitDx=0;exitDy=0;exitPerimeter=0;entryX=0;entryY=0.5;entryDx=0;entryDy=0;entryPerimeter=0;" edge="1" parent="cYbO4SU-JKFP0LUjQvzQ-7" source="cYbO4SU-JKFP0LUjQvzQ-12" target="cYbO4SU-JKFP0LUjQvzQ-14">
          <mxGeometry width="60" height="60" relative="1" as="geometry">
            <mxPoint x="350" y="380" as="sourcePoint" />
            <mxPoint x="410" y="320" as="targetPoint" />
          </mxGeometry>
        </mxCell>
        <mxCell id="cYbO4SU-JKFP0LUjQvzQ-16" value="Stream Consumer" style="sketch=0;html=1;dashed=0;whitespace=wrap;fillColor=#2875E2;strokeColor=#ffffff;points=[[0.005,0.63,0],[0.1,0.2,0],[0.9,0.2,0],[0.5,0,0],[0.995,0.63,0],[0.72,0.99,0],[0.5,1,0],[0.28,0.99,0]];verticalLabelPosition=bottom;align=center;verticalAlign=top;shape=mxgraph.kubernetes.icon;prIcon=pod" vertex="1" parent="cYbO4SU-JKFP0LUjQvzQ-7">
          <mxGeometry x="500" y="105" width="50" height="48" as="geometry" />
        </mxCell>
        <mxCell id="cYbO4SU-JKFP0LUjQvzQ-17" value="" style="html=1;labelBackgroundColor=#ffffff;endArrow=classic;endFill=1;endSize=6;jettySize=auto;orthogonalLoop=1;strokeWidth=1;fontSize=14;rounded=0;exitX=1;exitY=0.5;exitDx=0;exitDy=0;entryX=0.005;entryY=0.63;entryDx=0;entryDy=0;entryPerimeter=0;" edge="1" parent="cYbO4SU-JKFP0LUjQvzQ-7">
          <mxGeometry width="60" height="60" relative="1" as="geometry">
            <mxPoint x="420" y="129.44" as="sourcePoint" />
            <mxPoint x="502.24999999999955" y="129.68" as="targetPoint" />
          </mxGeometry>
        </mxCell>
        <mxCell id="cYbO4SU-JKFP0LUjQvzQ-3" value="MongoDB&lt;br&gt;Malak-A" style="aspect=fixed;perimeter=ellipsePerimeter;html=1;align=center;shadow=0;dashed=0;fontColor=#4277BB;labelBackgroundColor=#ffffff;fontSize=12;spacingTop=3;image;image=img/lib/ibm/data/enterprise_data.svg;" vertex="1" parent="cYbO4SU-JKFP0LUjQvzQ-7">
          <mxGeometry x="670" y="99" width="60" height="60" as="geometry" />
        </mxCell>
        <mxCell id="cYbO4SU-JKFP0LUjQvzQ-20" value="" style="html=1;labelBackgroundColor=#ffffff;endArrow=classic;endFill=1;endSize=6;jettySize=auto;orthogonalLoop=1;strokeWidth=1;fontSize=14;rounded=0;entryX=0;entryY=0.5;entryDx=0;entryDy=0;" edge="1" parent="cYbO4SU-JKFP0LUjQvzQ-7" target="cYbO4SU-JKFP0LUjQvzQ-3">
          <mxGeometry width="60" height="60" relative="1" as="geometry">
            <mxPoint x="550" y="129" as="sourcePoint" />
            <mxPoint x="410" y="320" as="targetPoint" />
          </mxGeometry>
        </mxCell>
        <mxCell id="cYbO4SU-JKFP0LUjQvzQ-6" value="API REQUEST" style="aspect=fixed;perimeter=ellipsePerimeter;html=1;align=center;shadow=0;dashed=0;fontColor=#4277BB;labelBackgroundColor=#ffffff;fontSize=12;spacingTop=3;image;image=img/lib/ibm/vpc/Internet.svg;flipH=0;" vertex="1" parent="1">
          <mxGeometry x="30" y="100" width="60" height="60" as="geometry" />
        </mxCell>
        <mxCell id="cYbO4SU-JKFP0LUjQvzQ-10" value="" style="html=1;labelBackgroundColor=#ffffff;endArrow=classic;endFill=1;endSize=6;jettySize=auto;orthogonalLoop=1;strokeWidth=1;fontSize=14;rounded=0;entryX=0;entryY=0.25;entryDx=0;entryDy=0;exitX=1;exitY=0.75;exitDx=0;exitDy=0;" edge="1" parent="1" source="cYbO4SU-JKFP0LUjQvzQ-6" target="cYbO4SU-JKFP0LUjQvzQ-8">
          <mxGeometry width="60" height="60" relative="1" as="geometry">
            <mxPoint x="50" y="372" as="sourcePoint" />
            <mxPoint x="110" y="312" as="targetPoint" />
          </mxGeometry>
        </mxCell>
        <mxCell id="cYbO4SU-JKFP0LUjQvzQ-4" value="" style="aspect=fixed;perimeter=ellipsePerimeter;html=1;align=center;shadow=0;dashed=0;fontColor=#4277BB;labelBackgroundColor=#ffffff;fontSize=12;spacingTop=3;image;image=img/lib/ibm/infrastructure/enterprise_messaging.svg;" vertex="1" parent="1">
          <mxGeometry x="40" y="480" width="60" height="60" as="geometry" />
        </mxCell>
      </root>
    </mxGraphModel>
  </diagram>
</mxfile>
